<mxfile host="app.diagrams.net" modified="2023-08-15T00:06:19.234Z" agent="Mozilla/5.0 (Windows NT 10.0; Win64; x64) AppleWebKit/537.36 (KHTML, like Gecko) Chrome/115.0.0.0 Safari/537.36" version="21.6.7" etag="hO8Nwu7XWDPmuE2vqdbF" type="github">
  <diagram name="페이지-1" id="wgLeCZ0DKpJlUQA5cNAK">
    <mxGraphModel>
      <root>
        <mxCell id="0" />
        <mxCell id="1" parent="0" />
      </root>
    </mxGraphModel>
  </diagram>
</mxfile>
